<svg xmlns="http://www.w3.org/2000/svg"  viewBox="0 0 48 48" width="48px" height="48px" baseProfile="basic"><path fill="#8a4581" d="M38.205,26.705c-0.75,0.719-14.92,14.903-15.549,15.508c-0.982,0.943-2.623,0.933-3.583-0.029 c-2.991-2.996-10.88-11.745-14.797-15.977c-0.599-0.647-0.635-1.576-0.087-2.261c4.099-5.123,12.785-16.63,13.296-16.819 c1.395-0.517,1.877-0.234,2.889,0.786c2.195,2.213,0.18,0.122,2.375,2.336L38.205,26.705z"/><path fill="#ed488b" d="M27.075,23.494c-1.797-1.917-4.514-4.364-6.524-6.328c-1.105-1.08-1.122-2.791-0.041-3.892 c1.523-1.551,2.144-2.29,2.865-3.201c0.994-1.256,2.517-3.109,4.172-3.004c1.214,0.076,2.18,0.951,3.031,1.772 c4.028,3.888,9.769,9.283,13.797,13.172c1.141,1.102,0.81,3.33,0.25,4.137c-3.728,5.376-8.723,11.43-13.213,16.258 c-0.745,0.801-1.748,1.671-2.84,1.402c-0.602-0.148-1.047-0.616-1.454-1.061c-0.917-1.002-3.662-4.337-6.067-7.2 c-0.906-1.078-0.866-2.616,0.104-3.643c2.002-2.119,4.408-4.473,5.841-5.855C27.726,25.347,27.766,24.232,27.075,23.494z"/><path d="M24.414,39.789c-0.559,0.538-1.107,1.088-1.661,1.631c-0.487,0.478-0.934,0.903-1.642,0.983 c-1.069,0.12-1.715-0.593-2.387-1.287c-1.299-1.341-2.568-2.71-3.836-4.08c-3.028-3.274-6.024-6.577-9.041-9.861 c-0.58-0.632-1.765-1.5-1.503-2.461c0.12-0.438,0.518-0.813,0.795-1.164c0.273-0.345,0.545-0.691,0.817-1.037 c1.265-1.612,2.52-3.232,3.774-4.852c2.266-2.927,4.505-5.88,6.842-8.752c0.322-0.395,0.641-0.797,0.988-1.17 c0.085-0.091,0.277-0.228,0.156-0.17c0.417-0.202,0.978-0.282,1.4-0.067c0.81,0.413,1.383,1.299,2.054,1.902 c0.295,0.265-0.046-0.072,0.157,0.133c0.354,0.357,0.714,0.708,1.069,1.065c0.454,0.457,1.161-0.25,0.707-0.707 c-0.347-0.35-0.686-0.717-1.052-1.049C21.999,8.8,21.69,8.53,21.891,8.71c-0.641-0.575-1.185-1.261-1.865-1.791 c-0.781-0.609-1.917-0.744-2.802-0.218c-0.252,0.15-0.449,0.417-0.637,0.635c-2.411,2.798-4.606,5.799-6.865,8.719 c-1.372,1.773-2.744,3.546-4.126,5.311c-0.56,0.715-1.13,1.422-1.689,2.138c-0.793,1.017-0.77,2.183,0.099,3.147 c3.152,3.497,6.356,6.953,9.549,10.413c1.547,1.677,3.094,3.357,4.687,4.99c0.848,0.868,1.759,1.492,3.038,1.328 c1.627-0.208,2.738-1.825,3.841-2.886C25.586,40.049,24.878,39.343,24.414,39.789L24.414,39.789z"/><path fill="#ef4754" d="M32.32,25.43L40,32.5c2.608-3.357,5.572-6.942,5.25-9l-6.785-7.16l-6.204,6.204 C31.457,23.348,31.484,24.66,32.32,25.43z"/><path d="M39.933,31.817c-1.392-1.331-2.839-2.601-4.293-3.862c-0.776-0.673-1.554-1.344-2.328-2.019 c-0.609-0.532-1.452-1.095-1.109-2.027c0.158-0.429,0.576-0.768,0.876-1.099c0.283-0.312,0.563-0.626,0.839-0.943 c0.509-0.582,1.005-1.175,1.494-1.774c0.983-1.205,1.946-2.425,2.949-3.613c0.413-0.489-0.291-1.2-0.707-0.707 c-1.112,1.316-2.172,2.674-3.268,4.002c-0.56,0.678-1.134,1.346-1.72,2.002c-0.587,0.656-1.348,1.269-1.504,2.182 c-0.131,0.768,0.15,1.498,0.7,2.034c0.802,0.781,1.699,1.483,2.546,2.216c1.631,1.412,3.26,2.826,4.819,4.318 C39.691,32.969,40.399,32.263,39.933,31.817L39.933,31.817z"/><path d="M27.428,23.14c-1.172-1.244-2.414-2.421-3.656-3.595c-0.571-0.54-1.143-1.078-1.712-1.62 c-0.593-0.564-1.393-1.138-1.7-1.921c-0.647-1.649,0.896-2.747,1.875-3.817c0.838-0.916,1.566-1.922,2.394-2.845 c1.042-1.161,2.374-2.297,3.977-1.442c1.336,0.713,2.414,2.062,3.5,3.101c2.458,2.352,4.928,4.692,7.393,7.037 c1.159,1.103,2.317,2.206,3.47,3.314c0.477,0.458,1.124,0.917,1.416,1.522c0.293,0.607,0.31,1.351,0.186,2.002 c-0.102,0.535-0.307,0.919-0.616,1.361c-0.529,0.757-1.069,1.506-1.617,2.249c-1.077,1.462-2.186,2.9-3.319,4.318 c-2.276,2.85-4.645,5.627-7.106,8.32c-1.016,1.112-2.509,3.144-4.063,1.668c-0.862-0.819-1.599-1.801-2.361-2.71 c-1.225-1.46-2.442-2.927-3.667-4.388c-0.591-0.706-1.083-1.417-0.875-2.38c0.206-0.953,1.118-1.646,1.768-2.314 c1.295-1.331,2.615-2.637,3.946-3.932c0.55-0.535,1.157-1.029,1.344-1.81C28.194,24.477,27.936,23.738,27.428,23.14 c-0.417-0.491-1.122,0.219-0.707,0.707c0.71,0.836,0.181,1.597-0.467,2.224c-0.578,0.56-1.153,1.122-1.726,1.688 c-0.69,0.682-1.376,1.368-2.056,2.06c-0.649,0.661-1.378,1.309-1.934,2.052c-1.002,1.338-0.716,2.977,0.297,4.197 c1.23,1.481,2.467,2.956,3.704,4.432c0.826,0.986,1.626,2.026,2.539,2.935c0.56,0.558,1.246,0.972,2.062,0.918 c0.79-0.052,1.484-0.519,2.058-1.03c1.419-1.263,2.644-2.826,3.891-4.256c1.312-1.504,2.597-3.031,3.854-4.581 c1.23-1.516,2.434-3.054,3.606-4.615c0.584-0.778,1.159-1.563,1.724-2.355c0.419-0.587,0.889-1.151,1.123-1.842 c0.401-1.185,0.363-2.717-0.427-3.736c-0.48-0.619-1.14-1.143-1.705-1.684c-0.62-0.594-1.241-1.188-1.863-1.78 c-2.695-2.57-5.4-5.129-8.092-7.701c-1.216-1.162-2.386-2.516-3.777-3.471c-1.401-0.962-2.932-0.912-4.284,0.096 c-1.163,0.867-1.987,2.065-2.911,3.163c-0.456,0.542-0.935,1.064-1.423,1.576c-0.582,0.611-1.206,1.158-1.508,1.966 c-0.247,0.66-0.263,1.418-0.039,2.088c0.263,0.786,0.809,1.315,1.392,1.876c1.358,1.306,2.742,2.583,4.093,3.896 c0.634,0.617,1.26,1.241,1.867,1.885C27.164,24.317,27.87,23.609,27.428,23.14z"/></svg>